<svg xmlns="http://www.w3.org/2000/svg" version="1.1" xmlns:xlink="http://www.w3.org/1999/xlink" width="31.999998" height="32"><svg width="31.999998" height="32" viewBox="0 0 8.4666661 8.4666667" version="1.1" id="SvgjsSvg1020" xmlns="http://www.w3.org/2000/svg" xmlns:svg="http://www.w3.org/2000/svg">
  <defs id="SvgjsDefs1019"></defs>
  <g id="SvgjsG1018" transform="translate(1.6298145e-8,-0.00201276)">
    <path d="M -1.6298145e-8,5.7340193 0.07027996,4.7955749 0.20257168,1.562696 0.21910814,0.86816448 q 0.004134,-0.16536465 0.004134,-0.32659518 V 0.09095063 q 0.51676453,0.0082682 0.83922566,0.0082682 0.1943034,0 0.5953127,-0.0082682 0.4010093,-0.0082682 0.5994468,-0.0082682 0.5250328,0 0.7772139,0.07854821 0.2521811,0.0744141 0.4464845,0.25631521 0.1943035,0.177767 0.3059246,0.44235044 0.1116212,0.26458341 0.1116212,0.58291031 0,0.5208987 -0.2645835,0.9384444 Q 3.3693047,2.7946626 2.9104178,3.0013685 2.455665,3.2039401 1.8934252,3.2039401 q -0.2976564,0 -0.6614586,-0.066146 -0.062012,-0.285254 -0.1405599,-0.5167645 0.322461,0.062012 0.6283856,0.062012 0.2976564,0 0.566374,-0.066146 0.2728516,-0.07028 0.4671551,-0.2273763 0.1943035,-0.1612306 0.3017905,-0.4010093 0.107487,-0.2397788 0.107487,-0.5084963 0,-0.2108399 -0.078548,-0.3886069 Q 3.0055025,0.90950564 2.8649425,0.80615273 2.7285167,0.69866571 2.5507497,0.66145867 2.3771168,0.62425162 2.0422534,0.62425162 H 1.6949876 l -0.4340822,0.008268 -0.32246103,-0.004134 Q 0.88883497,1.5337572 0.86816439,2.273764 L 0.81028676,3.9728858 Q 0.78134795,4.940269 0.78134795,5.2668641 V 5.7340193 L 0.39687514,5.725751 q -0.07028,0 -0.396875156298145,0.00827 z M 4.4979182,5.7340193 Q 4.6467464,3.3486342 4.6467464,1.9264982 l -0.00413,-0.3803387 q 0.2108399,0.00413 0.3472658,0.00413 0.1570964,0 0.3513998,-0.00413 L 5.308205,2.2324228 Q 5.4611673,1.9761076 5.5769226,1.84795 5.6968119,1.7156583 5.8456401,1.632976 5.9944683,1.5461595 6.1805035,1.5006843 q 0.1901694,-0.049609 0.3927411,-0.049609 0.1736329,0 0.3431316,0.041341 0.00413,0.2728517 0.028939,0.6118492 -0.2563152,-0.07028 -0.4588869,-0.07028 -0.2439128,0 -0.4382163,0.082682 Q 5.8539084,2.1952158 5.6968119,2.3605804 5.5438496,2.521811 5.4446308,2.7491874 5.3619485,2.9310885 5.3164732,3.2204766 5.2751321,3.5098647 5.2503274,4.2746763 5.2337909,4.8327819 5.2337909,5.4570335 v 0.2769858 q -0.2232423,-0.00827 -0.3596681,-0.00827 -0.1240235,0 -0.3762046,0.00827 z M 9.5539424,1.4510749 q 0.4340822,0 0.8268236,0.1240235 0.392741,0.1240234 0.677995,0.392741 0.289388,0.2687176 0.438216,0.6779951 0.148828,0.4092775 0.148828,0.8640302 0,0.4919599 -0.16123,0.9425785 -0.157097,0.4506187 -0.446485,0.7648116 -0.285254,0.3141928 -0.7028,0.463021 -0.4134113,0.144694 -0.8888346,0.144694 -0.4423505,0 -0.8350915,-0.1322917 Q 8.2186228,5.5603864 7.9292347,5.2792665 7.6439807,4.9981466 7.4951525,4.5930032 7.3463243,4.1837257 7.3463243,3.7372411 q 0,-0.6738609 0.2728517,-1.211296 Q 7.8920277,1.9843759 8.4211945,1.7197924 8.9503614,1.4510749 9.5539424,1.4510749 Z m -0.016537,0.5250327 q -0.4216798,0 -0.7772138,0.21084 -0.3513999,0.2108399 -0.5208987,0.6366539 -0.1694987,0.4216798 -0.1694987,0.9219079 0,0.4382163 0.1405599,0.7896162 0.14056,0.3472657 0.463021,0.5622398 0.3224611,0.214974 0.7772139,0.214974 0.3100587,0 0.587044,-0.1033529 0.276986,-0.107487 0.483692,-0.3513999 0.206705,-0.2439128 0.305924,-0.5953127 0.09922,-0.355534 0.09922,-0.7441409 0,-0.3638022 -0.09922,-0.6821292 Q 10.728031,2.5176769 10.521326,2.3275075 10.318754,2.133204 10.058305,2.0546558 9.8019894,1.9761076 9.5374054,1.9761076 Z M 12.646262,0.64078809 q 0.0124,-0.23564463 0.02067,-0.58291039 0.177767,0.0082682 0.401009,0.0082682 0.202572,0 0.392742,-0.0082682 -0.0124,0.20670581 -0.0248,0.58291039 -0.223242,-0.008268 -0.396875,-0.008268 -0.169499,0 -0.392741,0.008268 z m 0.735872,0.90537141 -0.08268,1.8231453 -0.06615,1.84795 q -0.03721,1.1079431 -0.07441,1.3766607 -0.03721,0.3100587 -0.111621,0.4836916 -0.06201,0.1405599 -0.157097,0.252181 -0.09508,0.1116212 -0.243912,0.2025717 -0.161231,0.099219 -0.338998,0.1446941 -0.239779,0.062012 -0.558106,0.062012 -0.504362,0 -1.087272,-0.1281577 -0.0083,-0.2315105 -0.05374,-0.5829103 0.487826,0.177767 0.901238,0.177767 0.23151,0 0.425814,-0.082682 0.165364,-0.066146 0.276985,-0.177767 0.09095,-0.095085 0.157097,-0.2728516 0.08268,-0.21084 0.111621,-0.5374351 0.03721,-0.4547528 0.07855,-1.3270514 0.0124,-0.2604493 0.04547,-1.2650395 0.04134,-1.4014654 0.04134,-1.6205736 l -0.0041,-0.3762046 q 0.260449,0.00413 0.376204,0.00413 0.115755,0 0.363802,-0.00413 z m 4.411102,3.5305353 q -0.04961,0.2273764 -0.09922,0.5787763 -0.396876,0.099219 -0.690398,0.1322917 -0.289388,0.037207 -0.578776,0.037207 -0.516765,0 -0.930176,-0.1240235 Q 15.08539,5.5769229 14.791868,5.2709983 14.498346,4.9609395 14.370188,4.5640644 14.24203,4.1671892 14.24203,3.7248388 q 0,-0.6159833 0.235645,-1.1410161 0.235645,-0.5291669 0.706934,-0.8309573 0.475423,-0.3017905 1.203028,-0.3017905 0.376204,0 0.719336,0.1116211 0.343132,0.107487 0.570508,0.3307293 0.227376,0.2232423 0.3514,0.5539716 0.124023,0.3265952 0.124023,0.7152021 0,0.1488282 -0.0248,0.2893881 h -3.154331 q -0.01654,0.2273764 -0.01654,0.3472658 0,0.4340822 0.181901,0.8020185 0.181901,0.3638023 0.537435,0.5539716 0.355534,0.1860352 0.818555,0.1860352 0.533301,0 1.298112,-0.2645834 z M 15.006842,3.1088555 h 2.463933 Q 17.466641,2.8484062 17.437702,2.7037121 17.408764,2.559018 17.330215,2.4060557 17.251667,2.2489593 17.115241,2.1373382 16.98295,2.0215829 16.79278,1.9637053 q -0.186035,-0.062012 -0.405143,-0.062012 -0.235645,0 -0.450619,0.066146 -0.21084,0.066146 -0.376204,0.1819011 -0.161231,0.1157553 -0.276986,0.2728517 -0.111621,0.1529623 -0.169499,0.2976563 -0.05374,0.1446941 -0.107487,0.3886071 z m 6.932913,1.9967781 q -0.0083,0.066146 -0.04548,0.248047 -0.03307,0.177767 -0.05788,0.3513999 -0.301791,0.07028 -0.582911,0.095085 -0.276986,0.024805 -0.487825,0.024805 -0.446485,0 -0.826824,-0.1198893 Q 19.562638,5.5851911 19.281518,5.3123394 19.000398,5.0353536 18.868106,4.6302102 18.735814,4.2209327 18.735814,3.7703141 q 0,-0.6077151 0.214974,-1.1534185 0.214975,-0.5457033 0.677996,-0.855762 0.463021,-0.3100587 1.260905,-0.3100587 0.587044,0 1.14515,0.1570964 0.0248,0.3513999 0.04547,0.5787763 -0.392741,-0.1240235 -0.640788,-0.1653647 -0.248047,-0.045475 -0.458886,-0.045475 -0.363803,0 -0.653191,0.1322917 -0.285254,0.1322918 -0.487826,0.3762046 -0.202571,0.2439129 -0.293522,0.5787763 -0.08682,0.3348634 -0.08682,0.6821292 0,0.4671551 0.144694,0.818555 0.144694,0.3513999 0.504362,0.5457033 0.363802,0.1901694 0.814421,0.1901694 0.438216,0 1.016993,-0.1943035 z m 3.030307,0.082682 q -0.04548,0.2025717 -0.09922,0.5374351 -0.28112,0.066146 -0.446485,0.082682 -0.165364,0.016536 -0.314193,0.016536 -0.367936,0 -0.595312,-0.09095 -0.223243,-0.095085 -0.343132,-0.2976564 -0.119889,-0.2067058 -0.119889,-0.5581057 0,-0.045475 0.0041,-0.1612305 0.0041,-0.1157553 0.04134,-0.8061527 l 0.09922,-1.852084 h -0.549838 q 0.01654,-0.1736329 0.02894,-0.496094 h 0.56224 q 0.02067,-0.2315105 0.04134,-0.78961619 0.388607,-0.0744141 0.657324,-0.14055996 -0.02894,0.61184925 -0.03307,0.93017615 h 1.149284 q -0.02067,0.2604493 -0.02481,0.496094 h -1.14515 l -0.111621,2.3275074 -0.0041,0.177767 q 0,0.3017905 0.06615,0.4547528 0.07028,0.1488282 0.206705,0.214974 0.136426,0.066146 0.285254,0.066146 0.103353,0 0.223243,-0.016536 0.119889,-0.016536 0.42168,-0.095085 z m 5.072561,-0.1736328 q -0.05788,0.2976563 -0.103353,0.6449221 -0.814421,0.1653646 -1.492416,0.1653646 -0.603581,0 -1.165821,-0.1819011 -0.56224,-0.1860352 -0.979785,-0.570508 -0.413412,-0.3844728 -0.603581,-0.9053715 -0.19017,-0.5208986 -0.19017,-1.1162114 0,-0.6366539 0.21084,-1.2278325 0.21084,-0.5911786 0.636654,-1.0004561 Q 26.784939,0.40927758 27.38852,0.20670588 27.996235,7.0314854e-8 28.657694,7.0314854e-8 q 0.711068,0 1.418002,0.148828179685146 0.0041,0.21083993 0.04547,0.64492214 -0.458887,-0.14055996 -0.781348,-0.18603523 -0.322461,-0.0496094 -0.611849,-0.0496094 -0.49196,0 -0.942579,0.1529623 -0.450618,0.14882819 -0.797884,0.47955744 -0.347266,0.3307293 -0.533301,0.8144209 -0.181901,0.4795575 -0.181901,1.0004562 0,0.4836916 0.144694,0.9177738 0.148828,0.4340822 0.450619,0.7358727 0.305924,0.2976563 0.72347,0.4588869 0.417546,0.1570964 0.938444,0.1570964 0.657325,0 1.513087,-0.2604493 z m 2.94349,-3.5636082 q 0.434082,0 0.826823,0.1240235 0.392742,0.1240234 0.677996,0.392741 0.289388,0.2687176 0.438216,0.6779951 0.148828,0.4092775 0.148828,0.8640302 0,0.4919599 -0.16123,0.9425785 -0.157097,0.4506187 -0.446485,0.7648116 -0.285254,0.3141928 -0.7028,0.463021 -0.413411,0.144694 -0.888835,0.144694 -0.44235,0 -0.835091,-0.1322917 Q 31.650794,5.5603864 31.361406,5.2792665 31.076152,4.9981466 30.927323,4.5930032 30.778495,4.1837257 30.778495,3.7372411 q 0,-0.6738609 0.272852,-1.211296 0.272852,-0.5415692 0.802018,-0.8061527 0.529167,-0.2687175 1.132748,-0.2687178 z m -0.01654,0.5250327 q -0.42168,0 -0.777214,0.21084 -0.3514,0.2108399 -0.520899,0.6366539 -0.169498,0.4216798 -0.169498,0.9219079 0,0.4382163 0.140559,0.7896162 0.14056,0.3472657 0.463021,0.5622398 0.322462,0.214974 0.777214,0.214974 0.310059,0 0.587045,-0.1033529 0.276986,-0.107487 0.483691,-0.3513999 0.206706,-0.2439128 0.305925,-0.5953127 0.09922,-0.355534 0.09922,-0.7441409 0,-0.3638022 -0.09922,-0.6821292 Q 34.160202,2.5176769 33.953496,2.3275075 33.750925,2.133204 33.490475,2.0546558 33.23416,1.9761076 32.969577,1.9761076 Z m 2.92282,3.7579117 q 0.08268,-1.2733078 0.161231,-3.0179049 0.05374,-1.2691736 0.07855,-2.62516377 l 0.384473,0.0041341 q 0.119889,0 0.367936,-0.0041341 l -0.128157,2.42672627 -0.09095,2.455665 -0.01654,0.7606774 q -0.243913,-0.00827 -0.363803,-0.00827 -0.04961,0 -0.39274,0.00827 z m 1.89756,0 q 0.08268,-1.2733078 0.161231,-3.0179049 0.05374,-1.2691736 0.07855,-2.62516377 l 0.384473,0.0041341 q 0.119889,0 0.367936,-0.0041341 l -0.128157,2.42672627 -0.09095,2.455665 -0.01654,0.7606774 q -0.243913,-0.00827 -0.363803,-0.00827 -0.04961,0 -0.39274,0.00827 z m 2.158006,-3.522267 q 0.03721,-0.1819012 0.07855,-0.5374352 0.496094,-0.1281576 0.859896,-0.1736328 0.367937,-0.049609 0.715202,-0.049609 0.372071,0 0.694532,0.07028 0.326595,0.066146 0.541569,0.2191082 0.214974,0.1529623 0.285254,0.3513999 0.07028,0.1984376 0.07028,0.425814 0,0.285254 -0.04548,0.9591149 -0.04134,0.6697268 -0.06615,1.2402349 -0.02067,0.570508 -0.02067,1.0169926 -0.223243,-0.00827 -0.363803,-0.00827 -0.132291,0 -0.376204,0.00827 l 0.08682,-1.1286138 0.06201,-1.3353195 q -0.144694,0.1116211 -0.219108,0.1570964 -0.07028,0.045475 -0.161231,0.086816 -0.09095,0.037207 -0.202571,0.074414 -0.107488,0.033073 -0.425814,0.1198893 -0.314193,0.086816 -0.446485,0.1322917 -0.285254,0.090951 -0.450619,0.1819012 -0.165364,0.09095 -0.276985,0.1984375 -0.111622,0.1074871 -0.157097,0.2149741 -0.05374,0.1322917 -0.05374,0.2769858 0,0.2232422 0.132291,0.3886069 0.132292,0.1653646 0.33073,0.2315105 0.202571,0.062012 0.483691,0.062012 0.173633,0 0.363802,-0.024805 0.19017,-0.024805 0.508497,-0.1281577 -0.05788,0.1612306 -0.132292,0.496094 -0.30179,0.057878 -0.49196,0.07028 -0.190169,0.016536 -0.359668,0.016536 -0.566374,0 -0.884701,-0.1322917 -0.318327,-0.1322917 -0.475423,-0.4010093 -0.157097,-0.2728516 -0.157097,-0.5911786 0,-0.1860352 0.05374,-0.3431316 0.05788,-0.1570964 0.152962,-0.285254 0.09509,-0.1281576 0.268718,-0.2563153 0.177767,-0.1281576 0.367936,-0.2108399 0.194304,-0.082682 0.450619,-0.1612305 0.256315,-0.082682 0.822689,-0.2191082 0.181901,-0.041341 0.310059,-0.082682 0.128157,-0.045475 0.227376,-0.086816 0.09922,-0.041341 0.173633,-0.095085 0.07441,-0.057878 0.136426,-0.1364258 0.06201,-0.082682 0.09095,-0.1653647 0.02894,-0.082682 0.02894,-0.1653646 0,-0.2025717 -0.132292,-0.3472658 -0.132291,-0.1446941 -0.347265,-0.2025717 -0.21084,-0.057878 -0.500228,-0.057878 -0.268718,0 -0.553972,0.045475 -0.28112,0.041341 -0.487826,0.103353 -0.202571,0.057878 -0.508496,0.177767 z m 4.254008,3.522267 0.03721,-0.463021 q 0.0083,-0.1240235 0.02481,-0.4671552 l 0.115755,-2.8029308 0.04961,-1.90996167 q 0.252181,0.0041341 0.392741,0.0041341 0.144694,0 0.367936,-0.0041341 -0.05788,0.52916687 -0.103353,1.52135477 0.434082,-0.095085 0.711068,-0.1281576 0.276986,-0.033073 0.545703,-0.033073 0.520899,0 0.917774,0.1322917 0.396875,0.1322917 0.653191,0.4382163 0.260449,0.3059246 0.367936,0.673861 0.107487,0.3679363 0.107487,0.7813479 0,0.4712893 -0.132292,0.9136397 -0.128157,0.4382163 -0.392741,0.781348 -0.260449,0.3389975 -0.636654,0.4960939 -0.376204,0.1570964 -0.822689,0.1570964 -0.239779,0 -0.450619,-0.053743 -0.210844,-0.049609 -0.380342,-0.14056 Q 45.404999,5.5397158 45.28511,5.4239606 45.169354,5.3082053 45.090806,5.1924501 45.016392,5.0766948 44.921307,4.8741231 l -0.0124,0.8598962 q -0.239779,-0.00827 -0.338998,-0.00827 -0.07028,0 -0.367936,0.00827 z m 0.84336,-3.5636082 q -0.02894,0.6862633 -0.04134,0.9053714 -0.0124,0.2191082 -0.0124,0.5250328 0,0.6490563 0.148829,0.996322 0.148828,0.3472658 0.446484,0.5250328 0.297656,0.177767 0.673861,0.177767 0.434082,0 0.748275,-0.2191082 0.314193,-0.2191081 0.487826,-0.6655927 0.173633,-0.4506187 0.173633,-0.9343103 0,-0.6821291 -0.363803,-1.0996749 Q 46.947024,1.963705 46.21942,1.963705 q -0.252181,0 -0.525033,0.045475 -0.268717,0.041341 -0.649056,0.1612305 z" id="SvgjsPath1017" style="font-size:8.46667px;font-family:'Eras Medium ITC';-inkscape-font-specification:'Eras Medium ITC';display:none;stroke-width:0.264583" aria-label="ProjectCollab"></path>
    <path d="M 0.39687498,5.9986026 0.46715498,5.0601582 0.5994467,1.8272793 0.6159832,1.1327478 C 0.6187392,1.0225047 0.6201172,0.91363965 0.6201172,0.80615263 V 0.35553396 c 0.34450969,0.005512 0.6242516,0.008268 0.8392257,0.008268 0.1295356,0 0.3279731,-0.002756 0.5953127,-0.008268 0.2673395,-0.005512 0.4671551,-0.008268 0.5994468,-0.008268 0.3500218,0 0.6090931,0.0261827 0.7772139,0.0785482 0.1681207,0.0496094 0.3169489,0.1350478 0.4464845,0.25631521 0.1295356,0.11851133 0.2315105,0.26596148 0.3059246,0.44235043 0.074414,0.176389 0.1116212,0.3706924 0.1116212,0.5829103 0,0.3472658 -0.088194,0.6600806 -0.2645835,0.9384444 C 3.8543741,2.921442 3.6132174,3.1281479 3.3072928,3.2659518 3.0041243,3.4009995 2.6651267,3.4685234 2.2903002,3.4685234 c -0.1984376,0 -0.4189238,-0.022049 -0.6614586,-0.066146 C 1.5875003,3.2122081 1.540647,3.0399532 1.4882817,2.8856129 c 0.214974,0.041341 0.4244359,0.062012 0.6283856,0.062012 0.1984376,0 0.3872289,-0.022049 0.566374,-0.066146 C 2.8649424,2.8346256 3.0206607,2.7588335 3.1501964,2.6541026 3.2797321,2.5466155 3.3803289,2.4129458 3.4519869,2.2530933 3.5236449,2.0932408 3.5594739,1.923742 3.5594739,1.744597 c 0,-0.1405599 -0.026183,-0.2700956 -0.078548,-0.3886069 C 3.4285603,1.2347227 3.3555242,1.139638 3.2618175,1.0707361 3.170867,0.99907805 3.066136,0.95084669 2.9476247,0.926042 2.8318694,0.9012373 2.6623707,0.88883495 2.4391284,0.88883495 H 2.0918626 l -0.4340822,0.008268 -0.322461,-0.004134 C 1.3022464,1.49655 1.2788198,2.0450094 1.2650394,2.5383473 L 1.2071618,4.2374691 C 1.1878692,4.8823912 1.178223,5.3137173 1.178223,5.5314474 v 0.4671552 c -0.26052562,-0.012158 -0.52082176,-0.00626 -0.78134802,1.7e-6 z M 8.1548571,7.4310184 c 0.201792,-0.012107 -0.07304,0.4134116 -0.103353,0.6449221 -0.542947,0.1102431 -1.040419,0.1653646 -1.492416,0.1653646 -0.402387,0 -0.790994,-0.060634 -1.165821,-0.1819011 C 5.0184401,7.9353805 4.6918451,7.7452112 4.4134821,7.488896 4.1378741,7.2325808 3.9366801,6.9307903 3.8099011,6.5835245 c -0.12678,-0.3472657 -0.19017,-0.7193362 -0.19017,-1.1162114 0,-0.4244359 0.07028,-0.8337134 0.21084,-1.2278325 0.14056,-0.3941191 0.352778,-0.7276044 0.636654,-1.0004561 0.286632,-0.2756075 0.631142,-0.4809352 1.033529,-0.615983 0.405143,-0.1378039 0.828201,-0.2067058 1.269174,-0.2067058 0.474045,0 0.946713,0.049609 1.418002,0.1488282 0.0027,0.1405599 0.01789,0.355534 0.04547,0.6449221 -0.305925,-0.093707 -0.566374,-0.1557184 -0.781348,-0.1860352 -0.214974,-0.033073 -0.418924,-0.049609 -0.611849,-0.049609 -0.327973,0 -0.642166,0.050987 -0.942579,0.1529623 -0.300412,0.099219 -0.566373,0.2590712 -0.797884,0.4795574 -0.231511,0.2204862 -0.409278,0.4919598 -0.533301,0.8144209 -0.121267,0.319705 -0.181901,0.6531904 -0.181901,1.0004562 0,0.3224611 0.04823,0.6283857 0.144694,0.9177738 0.09922,0.2893881 0.249425,0.534679 0.450619,0.7358727 0.203949,0.1984375 0.445106,0.3513998 0.72347,0.4588869 0.278364,0.1047309 0.591179,0.1570964 0.938444,0.1570964 0.438217,0 0.9178121,-0.2247328 1.513087,-0.2604493 z" id="SvgjsPath1016" style="font-size:8.46667px;font-family:'Eras Medium ITC';-inkscape-font-specification:'Eras Medium ITC';stroke-width:0.264583" aria-label="ProjectCollab"></path>
  </g>
</svg><style>@media (prefers-color-scheme: light) { :root { filter: none; } }
@media (prefers-color-scheme: dark) { :root { filter: invert(100%); } }
</style></svg>